<?xml version="1.0" encoding="UTF-8" standalone="no"?>
<!-- Created using Krita: http://krita.org -->

<svg
   xmlns:dc="http://purl.org/dc/elements/1.1/"
   xmlns:cc="http://creativecommons.org/ns#"
   xmlns:rdf="http://www.w3.org/1999/02/22-rdf-syntax-ns#"
   xmlns:svg="http://www.w3.org/2000/svg"
   xmlns="http://www.w3.org/2000/svg"
   xmlns:sodipodi="http://sodipodi.sourceforge.net/DTD/sodipodi-0.dtd"
   xmlns:inkscape="http://www.inkscape.org/namespaces/inkscape"
   width="4000"
   height="4000"
   viewBox="0 0 3000.0001 3000.0001"
   version="1.1"
   id="svg77"
   sodipodi:docname="logo.svg"
   inkscape:version="">
  <metadata
     id="metadata81">
    <rdf:RDF>
      <cc:Work
         rdf:about="">
        <dc:format>image/svg+xml</dc:format>
        <dc:type
           rdf:resource="http://purl.org/dc/dcmitype/StillImage" />
        <dc:title />
      </cc:Work>
    </rdf:RDF>
  </metadata>
  <sodipodi:namedview
     pagecolor="#ffffff"
     bordercolor="#666666"
     borderopacity="1"
     objecttolerance="10"
     gridtolerance="10"
     guidetolerance="10"
     inkscape:pageopacity="0"
     inkscape:pageshadow="2"
     inkscape:window-width="1854"
     inkscape:window-height="980"
     id="namedview79"
     showgrid="false"
     inkscape:zoom="16"
     inkscape:cx="2838.3278"
     inkscape:cy="2060.749"
     inkscape:window-x="0"
     inkscape:window-y="0"
     inkscape:window-maximized="1"
     inkscape:current-layer="svg77"
     units="px" />
  <defs
     id="defs71">
    <inkscape:path-effect
       effect="bend_path"
       id="path-effect458"
       is_visible="true"
       bendpath="M 0,13.9311 H 28.2865"
       prop_scale="1.54"
       scale_y_rel="false"
       vertical="false" />
  </defs>
  <path
     id="shape0"
     d="m 707.35731,1567.0963 -268.69356,184.862 -337.24023,189.7964 605.93379,445.0361 H 1808.2843 l 317.714,-151.6672 -969.3854,-293.3689 c 161.252,-258.7951 11.5001,-383.6812 -449.25559,-374.6584 z"
     inkscape:connector-curvature="0"
     style="fill:#4d4444;fill-rule:evenodd;stroke-width:11.94193554"
     sodipodi:nodetypes="cccccccc" />
  <path
     id="shape02"
     stroke-miterlimit="2"
     d="m 599.98174,2093.0734 c -203.35347,25.5738 -342.58757,136.1042 -273.70918,277.2918 65.74753,122.7971 224.09253,136.1328 527.35688,-16.4793"
     inkscape:connector-curvature="0"
     style="fill:none;stroke:#4d4444;stroke-width:35.89578629;stroke-linecap:square;stroke-linejoin:miter;stroke-miterlimit:2" />
  <path
     id="shape01"
     stroke-miterlimit="1.20000004768372"
     d="m 1206.4152,2626.3257 c -11.5228,-19.3056 -28.8802,-35.9639 -52.0731,-49.9712 43.7343,11.4519 73.7468,15.4271 90.0373,11.9267 -13.3757,-5.5559 -24.6829,-15.3125 -33.9214,-29.2685 51.7823,1.7442 127.8346,-37.0936 155.0593,-99.2826 -53.5887,24.2101 -88.2417,32.133 -103.9593,23.7687 41.3891,-4.2424 88.861,-45.7251 142.4158,-124.4483 -15.5105,-40.4388 -40.0811,-75.4112 -73.7121,-104.9148 12.0822,-2.7893 25.8217,-2.5268 41.2169,0.7874 -47.9634,-127.457 -147.902,-155.6937 -204.687,-158.156 31.7099,-9.1851 40.8404,-11.8503 56.8451,-47.3656 -144.4815,-40.8672 -278.81578,32.2439 -312.03124,91.3 34.05006,-56.4922 27.28606,-86.479 14.34068,-110.2906 -10.11515,40.7228 -27.76258,76.3227 -52.94278,106.801 -25.18045,30.4782 -69.62631,89.2182 -67.32266,170.4323 4.03828,130.1819 67.82921,218.2058 191.37119,264.0753 15.79471,7.5496 31.91941,26.947 48.37531,58.1948 3.5582,-28.7078 1.5411,-50.5247 -6.0549,-65.4471 54.8617,46.0079 83.6328,49.0501 105.1464,49.3126 20.2947,-2.8239 40.9265,1.3588 61.8965,12.547"
     inkscape:connector-curvature="0"
     style="fill:#4d4444;fill-rule:evenodd;stroke:#000000;stroke-width:0;stroke-linecap:square;stroke-linejoin:miter;stroke-miterlimit:1.20000005;stroke-opacity:0" />
  <path
     id="shape011"
     stroke-miterlimit="1.20000004768372"
     d="m 2165.7981,1652.0208 c 22.438,1.4185 45.1894,9.2376 68.253,23.4573 -30.184,-33.6565 -47.4443,-58.5287 -51.7811,-74.6167 11.0578,9.3545 24.9049,14.9474 41.5415,16.7811 -25.2324,-45.2515 -25.4731,-130.6472 17.3823,-183.2979 2.9757,58.7292 11.7769,93.1695 26.4037,103.3221 -15.1545,-38.7483 0.024,-99.9363 45.5445,-183.5627 43.056,-4.7005 85.3931,1.1572 127.011,17.5732 -3.0446,-12.0197 -9.5613,-24.1182 -19.5481,-36.2942 135.2831,-15.6334 206.0968,60.3302 234.2547,109.7036 -6.3331,-32.4002 -8.1385,-41.7392 16.1273,-72.2139 102.4161,109.799 98.8295,262.6987 61.5009,319.2433 34.6674,-56.1152 64.4276,-63.8126 91.5234,-63.1899 -31.5888,27.6187 -55.1778,59.593 -70.7668,95.9242 -15.5897,36.3313 -47.5017,102.7185 -120.7805,137.8102 -117.6179,55.9423 -225.0701,39.4665 -322.3597,-49.4236 -13.9368,-10.594 -38.5609,-16.0629 -73.8754,-16.4077 23.9027,-16.2919 44.2269,-24.4749 60.9717,-24.5441 -66.0044,-27.7498 -81.8666,-51.9444 -91.9389,-70.9565 -6.7697,-19.3402 -19.9246,-35.7753 -39.4635,-49.3078"
     inkscape:connector-curvature="0"
     style="fill:#4d4444;fill-rule:evenodd;stroke:#000000;stroke-width:0;stroke-linecap:square;stroke-linejoin:miter;stroke-miterlimit:1.20000005;stroke-opacity:0" />
  <g
     id="g287"
     transform="matrix(11.930273,0,0,11.930273,22.964281,-34.588248)">
    <path
       d="M 13.9922,6.70402 C 10.9992,7.38504 12.3255,9.9293 8.54698,12.5037 3.74933,16.0031 -5.8315,10.5112 4.86716,0"
       stroke-miterlimit="2"
       transform="matrix(-2.7669635,0,0,2.7669636,239.38601,151.83663)"
       id="shape0111"
       inkscape:connector-curvature="0"
       style="fill:none;stroke:#d83e3e;stroke-width:1.20000005;stroke-linecap:square;stroke-linejoin:miter;stroke-miterlimit:2" />
    <path
       d="m 25.1292,24.1284 c -0.6152,-0.8556 -1.0077,-1.9127 -1.1774,-3.1713 -0.3234,2.0942 -0.7123,3.4589 -1.1667,4.0941 0.0106,-0.6788 -0.198,-1.347 -0.6258,-2.0046 -0.8909,2.2592 -3.9796,4.805 -7.1616,4.8156 2.0407,-1.8527 3.0278,-3.195 2.9613,-4.0269 -0.9545,1.7006 -3.6238,2.9681 -8.00789,3.8025 C 8.50154,26.2165 7.45608,24.5076 6.81474,22.5111 6.46942,22.9786 6.22441,23.5743 6.0797,24.2981 1.49369,19.8581 2.14375,15.034 3.09713,12.5463 2.11067,13.7385 1.82575,14.0814 0,14.1071 0.937828,7.13203 6.5875,2.71943 9.74649,2.39276 6.68215,2.80313 5.51891,1.95292 4.73649,0.952092 6.67624,1.27676 8.53624,1.18199 10.3165,0.667761 c 1.7803,-0.514225 5.1352,-1.329695 8.5845,0.284331 5.5225,2.602018 8.1176,6.987018 7.7855,13.155008 0.03,0.82 0.5633,1.8752 1.6,3.1657 -1.3008,-0.3825 -2.2013,-0.8762 -2.7013,-1.4812 0.955,3.2173 0.5491,4.5112 0.1591,5.4412 -0.5,0.82 -0.705,1.7852 -0.6151,2.8956"
       stroke-miterlimit="1.20000004768372"
       transform="matrix(-0.65456898,1.6641788,-1.6641788,-0.65456894,244.13245,120.73577)"
       id="shape0-6"
       inkscape:connector-curvature="0"
       style="fill:#bababa;fill-rule:evenodd;stroke:#000000;stroke-width:0.47999999;stroke-linecap:square;stroke-linejoin:miter;stroke-miterlimit:7.5;stroke-dasharray:none" />
    <path
       d="m 12.4689,35.3967 c 5.2231,3.8217 10.363298,5.082002 15.51,4.3192 4.80026,-0.763172 9.155785,-3.760362 11.1265,-8.18 1.739608,-3.879247 1.17106,-7.786976 4.967725,-14.21607 -1.083037,0.438353 -3.218661,1.724385 -4.967678,6.386238 C 39.218978,21.970722 40.646965,15.95488 34.3848,6.88615 32.287664,3.9747079 29.778895,1.5798459 27.145301,-0.01864505 25.498803,3.2270958 27.909668,5.5506078 28.7948,7.6348003 22.414814,0.48251726 14.753479,-0.75997058 6.85892,1.97589 9.15711,3.34612 11.0271,4.98288 12.4689,6.88615 6.6984,6.23538 2.5784,6.71 0.108933,8.31 -0.410758,16.5452 0.503152,24.6944 12.4689,35.3967 Z"
       transform="matrix(1.0002182,-0.03898113,0.03898113,1.0002182,193.73265,113.20258)"
       id="shape01-7"
       inkscape:connector-curvature="0"
       style="fill:#e5e5e5;fill-rule:evenodd"
       sodipodi:nodetypes="cccccccccccc" />
  </g>
  <g
     id="g359"
     transform="matrix(11.930273,0,0,11.930273,20.980827,-33.210283)">
    <path
       d="M 9.74563,0 C 2.9475,0.85491 -1.70711,4.54995 0.595503,9.26989 2.79345,13.375 8.08694,13.8208 18.2251,8.71897"
       stroke-miterlimit="2"
       transform="matrix(2.5073319,0,0,2.507332,25.773506,174.29021)"
       id="shape02-5"
       inkscape:connector-curvature="0"
       style="fill:none;stroke:#9f0210;stroke-width:1.20000005;stroke-linecap:square;stroke-linejoin:miter;stroke-miterlimit:2" />
    <path
       style="fill:#9f0210;fill-rule:evenodd;stroke-width:2.75643325"
       d="m 69.920013,125.5126 c 35.790807,-15.00008 71.230577,-11.39525 106.523357,0 14.48458,23.22712 10.51993,46.82106 0,64.62 -35.37411,-0.48307 -71.049,-0.0724 -106.523357,0 -16.691121,-17.66229 -11.642432,-46.49749 0,-64.62 z"
       id="shape0-3"
       inkscape:connector-curvature="0"
       sodipodi:nodetypes="ccccc" />
    <path
       d="M 0.00925814,0 C 4.6696305,-0.34049975 9.5588464,-3.5796845 13.4967,5.23172 l 10e-7,23.443337 L 0.00925814,19.7105 C -0.022813,13.1404 0.0413292,6.57015 0.00925814,0 Z"
       id="shape1"
       inkscape:connector-curvature="0"
       style="fill:#8f000d;fill-rule:evenodd"
       sodipodi:nodetypes="ccccc"
       transform="matrix(2.7564331,0,0,2.7564332,32.717259,111.09172)" />
    <path
       d="M 0,0.02950812 C 2.9694107,-0.53488237 8.5730955,-3.9930953 13.207101,5.2317664 L 13.2071,28.6751 C 7.03795,24.4847 2.60921,21.5064 0,19.7105 Z"
       transform="matrix(-2.7564331,0,0,2.7564332,212.84785,111.09159)"
       id="shape01-5"
       inkscape:connector-curvature="0"
       style="fill:#d83e3e;fill-rule:evenodd"
       sodipodi:nodetypes="ccccc" />
    <path
       d="M -2.0187668e-7,28.013839 32.859035,-0.0250367 C 30.384432,12.15474 33.113248,25.758093 13.487442,33.245559"
       transform="matrix(2.7564331,0,0,2.7564332,32.742779,33.873444)"
       id="shape3"
       inkscape:connector-curvature="0"
       style="opacity:1;fill:#8f000d;fill-rule:evenodd"
       sodipodi:nodetypes="ccc" />
    <path
       d="M 0,28.0433 32.480866,-0.0250367 C 31.842715,12.539301 32.704005,28.003501 13.207101,33.245558"
       id="shape011-6"
       inkscape:connector-curvature="0"
       style="fill:#f74b4b;fill-rule:evenodd"
       transform="matrix(-2.7564332,0,0,2.7564332,212.84785,33.873444)"
       sodipodi:nodetypes="ccc" />
    <path
       d="M 0,11.3173 18.72,0"
       transform="matrix(0.90705311,0,0,0.90705311,118.03002,202.89959)"
       id="shape0111-2"
       inkscape:connector-curvature="0"
       style="fill:#9f0210;fill-rule:evenodd" />
  </g>
  <a
     id="a4982"
     transform="matrix(11.930273,0,0,11.930273,18.785336,-32.167596)">
    <g
       transform="translate(-0.05509841,-0.19883793)"
       id="g440">
      <path
         sodipodi:nodetypes="ccccccccccccccccccc"
         style="fill:#bababa;fill-rule:evenodd;stroke:#000000;stroke-width:0.85874999;stroke-linecap:square;stroke-linejoin:miter;stroke-miterlimit:6;stroke-dasharray:none"
         inkscape:connector-curvature="0"
         id="shape0-9"
         stroke-miterlimit="1.20000004768372"
         d="m 93.668294,168.8874 c 3.343394,-1.78363 5.71324,-2.69104 7.109536,-2.72221 -0.982633,0.71295 -1.714972,1.72818 -2.197016,3.04569 4.188216,-1.14862 11.144026,0.54007 14.572406,5.08168 -4.83993,-0.93262 -6.73759,-1.00545 -8.93838,0.0823 3.49232,-0.37639 8.13403,2.00136 14.03059,7.37932 -0.47877,3.5987 -1.80253,6.92768 -3.97129,9.98692 1.03934,-0.007 2.15451,-0.29578 3.34539,-0.86512 -1.43375,11.32454 -9.03363,15.56904 -13.61582,16.87336 3.0687,0.20296 3.56027,0.17251 5.55546,2.75732 -10.986282,6.14001 -23.360269,2.78939 -27.21622,-1.38025 3.874186,3.94443 3.905425,6.52085 3.31266,8.71393 -1.616147,-3.12376 -3.746904,-5.68349 -6.392311,-7.67919 -2.645445,-1.99576 -7.410943,-5.92141 -8.801447,-12.58816 -2.200677,-10.69299 1.28995,-19.10983 10.471676,-25.25082 1.141121,-0.92251 2.078907,-2.81746 2.813394,-5.6851 0.93069,2.26122 1.261924,3.57373 0.778205,5.454 4.944787,-7.41655 7.504237,-4.87236 12.277056,-7.74523 -0.448004,1.7398 -1.631057,2.89069 -3.133889,4.54156 z" />
      <path
         sodipodi:nodetypes="ccccccccccccc"
         transform="matrix(-1.0726638,-1.4308543,1.4308543,-1.0726638,88.244068,205.46552)"
         style="fill:#e5e5e5;fill-rule:evenodd"
         inkscape:connector-curvature="0"
         id="shape1-1"
         d="M 6.86614,0 C 2.05105,2.18699 -0.231495,5.36419 0.0185097,9.53159 0.977177,9.11631 1.99111,8.35951 3.06032,7.2612 c -3.0712226,4.6109 -3.539104,9.0306 -1.40364,13.2591 4.0449,-1.1642 6.67533,-3.2714 7.8913,-6.3216 0.12157,1.9515 -0.28855,3.5955 -1.23035,4.9321 1.807156,-0.02361 3.435813,-1.377236 4.383962,-2.865724 0.159002,0.224417 0.695323,1.124737 0.830797,1.707503 0.320079,-0.638871 0.900878,-3.548187 0.984995,-4.674414 0.194269,0.89558 0.511713,3.130893 0.865904,3.653892 0.195059,-0.835398 0.270295,-1.08456 0.546518,-1.71731 0.961883,-1.896559 0.939533,-3.538893 -0.439949,-6.9509096 C 14.468964,5.8272288 12.480613,2.2913282 6.86614,0 Z" />
    </g>
  </a>
  <path
     style="fill:#ba1826;stroke:none;stroke-width:0.75px;stroke-linecap:butt;stroke-linejoin:miter;stroke-opacity:1;fill-opacity:1"
     d="M 855.14582,1464.1893 H 2125.9984 L 1492.1806,370.0858 Z"
     id="path833"
     inkscape:connector-curvature="0" />
</svg>
